<svg xmlns="http://www.w3.org/2000/svg" version="1.1" xmlns:xlink="http://www.w3.org/1999/xlink" xmlns:svgjs="http://svgjs.com/svgjs" width="1440" height="250" preserveAspectRatio="none" viewBox="0 0 1440 250"><g mask="url(&quot;#SvgjsMask1009&quot;)" fill="none"><path d="M30 250L280 0L494.5 0L244.5 250z" fill="url(#SvgjsLinearGradient1010)"></path><path d="M247.60000000000002 250L497.6 0L722.6 0L472.6 250z" fill="url(#SvgjsLinearGradient1010)"></path><path d="M482.20000000000005 250L732.2 0L994.7 0L744.7 250z" fill="url(#SvgjsLinearGradient1010)"></path><path d="M713.8000000000001 250L963.8000000000001 0L1278.8000000000002 0L1028.8000000000002 250z" fill="url(#SvgjsLinearGradient1010)"></path><path d="M1417 250L1167 0L1078.5 0L1328.5 250z" fill="url(#SvgjsLinearGradient1011)"></path><path d="M1170.4 250L920.4000000000001 0L569.4000000000001 0L819.4000000000001 250z" fill="url(#SvgjsLinearGradient1011)"></path><path d="M921.8 250L671.8 0L386.79999999999995 0L636.8 250z" fill="url(#SvgjsLinearGradient1011)"></path><path d="M695.1999999999999 250L445.19999999999993 0L346.19999999999993 0L596.1999999999999 250z" fill="url(#SvgjsLinearGradient1011)"></path><path d="M1248.1325424063862 250L1440 58.13254240638619L1440 250z" fill="url(#SvgjsLinearGradient1010)"></path><path d="M0 250L191.8674575936138 250L 0 58.13254240638619z" fill="url(#SvgjsLinearGradient1011)"></path></g><defs><mask id="SvgjsMask1009"><rect width="1440" height="250" fill="#ffffff"></rect></mask><linearGradient x1="0%" y1="100%" x2="100%" y2="0%" id="SvgjsLinearGradient1010"><stop stop-color="rgba(19, 139, 158, 0.27)" offset="0"></stop><stop stop-opacity="0" stop-color="rgba(19, 139, 158, 0.27)" offset="0.66"></stop></linearGradient><linearGradient x1="100%" y1="100%" x2="0%" y2="0%" id="SvgjsLinearGradient1011"><stop stop-color="rgba(19, 139, 158, 0.27)" offset="0"></stop><stop stop-opacity="0" stop-color="rgba(19, 139, 158, 0.27)" offset="0.66"></stop></linearGradient></defs></svg>