<svg xmlns="http://www.w3.org/2000/svg" version="1.1" xmlns:xlink="http://www.w3.org/1999/xlink" xmlns:svgjs="http://svgjs.com/svgjs" width="1440" height="560" preserveAspectRatio="none" viewBox="0 0 1440 560"><g mask="url(&quot;#SvgjsMask2028&quot;)" fill="none"><rect width="1440" height="560" x="0" y="0" fill="url(#SvgjsLinearGradient2029)"></rect><path d="M-58.35 410.27L-58.35 410.27" stroke="rgba(45, 114, 143, 1)" stroke-width="1.5"></path><path d="M-58.35 410.27L-43.56 493.35" stroke="rgba(45, 114, 143, 1)" stroke-width="1.5"></path><path d="M-43.56 493.35L-43.56 493.35" stroke="rgba(45, 114, 143, 1)" stroke-width="1.5"></path><path d="M-43.56 493.35L84.74 503.22" stroke="rgba(45, 114, 143, 1)" stroke-width="1.5"></path><path d="M-43.56 493.35L-107.96 662.76" stroke="rgba(45, 114, 143, 1)" stroke-width="1.5"></path><path d="M-43.56 493.35L203.54 543.32" stroke="rgba(45, 114, 143, 1)" stroke-width="1.5"></path><path d="M-43.56 493.35L84.92 710.96" stroke="rgba(45, 114, 143, 1)" stroke-width="1.5"></path><path d="M-43.56 493.35L232.22 360.82" stroke="rgba(45, 114, 143, 1)" stroke-width="1.5"></path><path d="M-107.96 662.76L-107.96 662.76" stroke="rgba(45, 114, 143, 1)" stroke-width="1.5"></path><path d="M-107.96 662.76L84.92 710.96" stroke="rgba(45, 114, 143, 1)" stroke-width="1.5"></path><path d="M-107.96 662.76L84.74 503.22" stroke="rgba(45, 114, 143, 1)" stroke-width="1.5"></path><path d="M84.74 503.22L84.74 503.22" stroke="rgba(45, 114, 143, 1)" stroke-width="1.5"></path><path d="M84.74 503.22L203.54 543.32" stroke="rgba(45, 114, 143, 1)" stroke-width="1.5"></path><path d="M84.74 503.22L-58.35 410.27" stroke="rgba(45, 114, 143, 1)" stroke-width="1.5"></path><path d="M84.74 503.22L232.22 360.82" stroke="rgba(45, 114, 143, 1)" stroke-width="1.5"></path><path d="M84.74 503.22L84.92 710.96" stroke="rgba(45, 114, 143, 1)" stroke-width="1.5"></path><path d="M84.92 710.96L84.92 710.96" stroke="rgba(45, 114, 143, 1)" stroke-width="1.5"></path><path d="M84.92 710.96L223.25 708.28" stroke="rgba(45, 114, 143, 1)" stroke-width="1.5"></path><path d="M84.92 710.96L203.54 543.32" stroke="rgba(45, 114, 143, 1)" stroke-width="1.5"></path><path d="M232.22 360.82L232.22 360.82" stroke="rgba(45, 114, 143, 1)" stroke-width="1.5"></path><path d="M232.22 360.82L339.43 378.01" stroke="rgba(45, 114, 143, 1)" stroke-width="1.5"></path><path d="M232.22 360.82L203.54 543.32" stroke="rgba(45, 114, 143, 1)" stroke-width="1.5"></path><path d="M232.22 360.82L401.54 494.45" stroke="rgba(45, 114, 143, 1)" stroke-width="1.5"></path><path d="M203.54 543.32L203.54 543.32" stroke="rgba(45, 114, 143, 1)" stroke-width="1.5"></path><path d="M203.54 543.32L223.25 708.28" stroke="rgba(45, 114, 143, 1)" stroke-width="1.5"></path><path d="M203.54 543.32L354.68 674.54" stroke="rgba(45, 114, 143, 1)" stroke-width="1.5"></path><path d="M203.54 543.32L401.54 494.45" stroke="rgba(45, 114, 143, 1)" stroke-width="1.5"></path><path d="M223.25 708.28L223.25 708.28" stroke="rgba(45, 114, 143, 1)" stroke-width="1.5"></path><path d="M223.25 708.28L354.68 674.54" stroke="rgba(45, 114, 143, 1)" stroke-width="1.5"></path><path d="M223.25 708.28L84.74 503.22" stroke="rgba(45, 114, 143, 1)" stroke-width="1.5"></path><path d="M223.25 708.28L401.54 494.45" stroke="rgba(45, 114, 143, 1)" stroke-width="1.5"></path><path d="M223.25 708.28L-107.96 662.76" stroke="rgba(45, 114, 143, 1)" stroke-width="1.5"></path><path d="M339.43 378.01L339.43 378.01" stroke="rgba(45, 114, 143, 1)" stroke-width="1.5"></path><path d="M339.43 378.01L401.54 494.45" stroke="rgba(45, 114, 143, 1)" stroke-width="1.5"></path><path d="M339.43 378.01L490.29 377.77" stroke="rgba(45, 114, 143, 1)" stroke-width="1.5"></path><path d="M339.43 378.01L203.54 543.32" stroke="rgba(45, 114, 143, 1)" stroke-width="1.5"></path><path d="M339.43 378.01L533.01 545.77" stroke="rgba(45, 114, 143, 1)" stroke-width="1.5"></path><path d="M401.54 494.45L401.54 494.45" stroke="rgba(45, 114, 143, 1)" stroke-width="1.5"></path><path d="M401.54 494.45L533.01 545.77" stroke="rgba(45, 114, 143, 1)" stroke-width="1.5"></path><path d="M401.54 494.45L490.29 377.77" stroke="rgba(45, 114, 143, 1)" stroke-width="1.5"></path><path d="M401.54 494.45L354.68 674.54" stroke="rgba(45, 114, 143, 1)" stroke-width="1.5"></path><path d="M354.68 674.54L354.68 674.54" stroke="rgba(45, 114, 143, 1)" stroke-width="1.5"></path><path d="M354.68 674.54L558.7 683.34" stroke="rgba(45, 114, 143, 1)" stroke-width="1.5"></path><path d="M490.29 377.77L490.29 377.77" stroke="rgba(45, 114, 143, 1)" stroke-width="1.5"></path><path d="M490.29 377.77L661.02 358.33" stroke="rgba(45, 114, 143, 1)" stroke-width="1.5"></path><path d="M490.29 377.77L533.01 545.77" stroke="rgba(45, 114, 143, 1)" stroke-width="1.5"></path><path d="M490.29 377.77L709.84 493.31" stroke="rgba(45, 114, 143, 1)" stroke-width="1.5"></path><path d="M533.01 545.77L533.01 545.77" stroke="rgba(45, 114, 143, 1)" stroke-width="1.5"></path><path d="M533.01 545.77L558.7 683.34" stroke="rgba(45, 114, 143, 1)" stroke-width="1.5"></path><path d="M558.7 683.34L558.7 683.34" stroke="rgba(45, 114, 143, 1)" stroke-width="1.5"></path><path d="M558.7 683.34L686.31 637.87" stroke="rgba(45, 114, 143, 1)" stroke-width="1.5"></path><path d="M661.02 358.33L661.02 358.33" stroke="rgba(45, 114, 143, 1)" stroke-width="1.5"></path><path d="M661.02 358.33L709.84 493.31" stroke="rgba(45, 114, 143, 1)" stroke-width="1.5"></path><path d="M661.02 358.33L843.91 354.78" stroke="rgba(45, 114, 143, 1)" stroke-width="1.5"></path><path d="M709.84 493.31L709.84 493.31" stroke="rgba(45, 114, 143, 1)" stroke-width="1.5"></path><path d="M709.84 493.31L686.31 637.87" stroke="rgba(45, 114, 143, 1)" stroke-width="1.5"></path><path d="M709.84 493.31L849.09 542.27" stroke="rgba(45, 114, 143, 1)" stroke-width="1.5"></path><path d="M686.31 637.87L686.31 637.87" stroke="rgba(45, 114, 143, 1)" stroke-width="1.5"></path><path d="M686.31 637.87L816.13 706.47" stroke="rgba(45, 114, 143, 1)" stroke-width="1.5"></path><path d="M686.31 637.87L533.01 545.77" stroke="rgba(45, 114, 143, 1)" stroke-width="1.5"></path><path d="M797.77 215.53L797.77 215.53" stroke="rgba(45, 114, 143, 1)" stroke-width="1.5"></path><path d="M797.77 215.53L843.91 354.78" stroke="rgba(45, 114, 143, 1)" stroke-width="1.5"></path><path d="M797.77 215.53L661.02 358.33" stroke="rgba(45, 114, 143, 1)" stroke-width="1.5"></path><path d="M797.77 215.53L1006.67 245.02" stroke="rgba(45, 114, 143, 1)" stroke-width="1.5"></path><path d="M843.91 354.78L843.91 354.78" stroke="rgba(45, 114, 143, 1)" stroke-width="1.5"></path><path d="M843.91 354.78L849.09 542.27" stroke="rgba(45, 114, 143, 1)" stroke-width="1.5"></path><path d="M843.91 354.78L709.84 493.31" stroke="rgba(45, 114, 143, 1)" stroke-width="1.5"></path><path d="M843.91 354.78L1006.67 245.02" stroke="rgba(45, 114, 143, 1)" stroke-width="1.5"></path><path d="M849.09 542.27L849.09 542.27" stroke="rgba(45, 114, 143, 1)" stroke-width="1.5"></path><path d="M849.09 542.27L985.11 546.86" stroke="rgba(45, 114, 143, 1)" stroke-width="1.5"></path><path d="M849.09 542.27L816.13 706.47" stroke="rgba(45, 114, 143, 1)" stroke-width="1.5"></path><path d="M849.09 542.27L686.31 637.87" stroke="rgba(45, 114, 143, 1)" stroke-width="1.5"></path><path d="M849.09 542.27L971.29 706.73" stroke="rgba(45, 114, 143, 1)" stroke-width="1.5"></path><path d="M816.13 706.47L816.13 706.47" stroke="rgba(45, 114, 143, 1)" stroke-width="1.5"></path><path d="M816.13 706.47L971.29 706.73" stroke="rgba(45, 114, 143, 1)" stroke-width="1.5"></path><path d="M816.13 706.47L985.11 546.86" stroke="rgba(45, 114, 143, 1)" stroke-width="1.5"></path><path d="M816.13 706.47L709.84 493.31" stroke="rgba(45, 114, 143, 1)" stroke-width="1.5"></path><path d="M816.13 706.47L558.7 683.34" stroke="rgba(45, 114, 143, 1)" stroke-width="1.5"></path><path d="M971 -52.06L971 -52.06" stroke="rgba(45, 114, 143, 1)" stroke-width="1.5"></path><path d="M971 -52.06L953.48 49.04" stroke="rgba(45, 114, 143, 1)" stroke-width="1.5"></path><path d="M971 -52.06L1137.61 -111.09" stroke="rgba(45, 114, 143, 1)" stroke-width="1.5"></path><path d="M971 -52.06L1160.25 101.28" stroke="rgba(45, 114, 143, 1)" stroke-width="1.5"></path><path d="M971 -52.06L1006.67 245.02" stroke="rgba(45, 114, 143, 1)" stroke-width="1.5"></path><path d="M971 -52.06L1283.44 -78.5" stroke="rgba(45, 114, 143, 1)" stroke-width="1.5"></path><path d="M953.48 49.04L953.48 49.04" stroke="rgba(45, 114, 143, 1)" stroke-width="1.5"></path><path d="M953.48 49.04L1006.67 245.02" stroke="rgba(45, 114, 143, 1)" stroke-width="1.5"></path><path d="M1006.67 245.02L1006.67 245.02" stroke="rgba(45, 114, 143, 1)" stroke-width="1.5"></path><path d="M1006.67 245.02L1127.51 230.13" stroke="rgba(45, 114, 143, 1)" stroke-width="1.5"></path><path d="M1006.67 245.02L1142.46 377.49" stroke="rgba(45, 114, 143, 1)" stroke-width="1.5"></path><path d="M1006.67 245.02L1160.25 101.28" stroke="rgba(45, 114, 143, 1)" stroke-width="1.5"></path><path d="M985.11 546.86L985.11 546.86" stroke="rgba(45, 114, 143, 1)" stroke-width="1.5"></path><path d="M985.11 546.86L1091.16 528.04" stroke="rgba(45, 114, 143, 1)" stroke-width="1.5"></path><path d="M985.11 546.86L971.29 706.73" stroke="rgba(45, 114, 143, 1)" stroke-width="1.5"></path><path d="M971.29 706.73L971.29 706.73" stroke="rgba(45, 114, 143, 1)" stroke-width="1.5"></path><path d="M971.29 706.73L1141.42 638.78" stroke="rgba(45, 114, 143, 1)" stroke-width="1.5"></path><path d="M1137.61 -111.09L1137.61 -111.09" stroke="rgba(45, 114, 143, 1)" stroke-width="1.5"></path><path d="M1137.61 -111.09L1283.44 -78.5" stroke="rgba(45, 114, 143, 1)" stroke-width="1.5"></path><path d="M1137.61 -111.09L1160.25 101.28" stroke="rgba(45, 114, 143, 1)" stroke-width="1.5"></path><path d="M1160.25 101.28L1160.25 101.28" stroke="rgba(45, 114, 143, 1)" stroke-width="1.5"></path><path d="M1160.25 101.28L1127.51 230.13" stroke="rgba(45, 114, 143, 1)" stroke-width="1.5"></path><path d="M1127.51 230.13L1127.51 230.13" stroke="rgba(45, 114, 143, 1)" stroke-width="1.5"></path><path d="M1127.51 230.13L1239.16 219.22" stroke="rgba(45, 114, 143, 1)" stroke-width="1.5"></path><path d="M1127.51 230.13L1142.46 377.49" stroke="rgba(45, 114, 143, 1)" stroke-width="1.5"></path><path d="M1127.51 230.13L1263.34 409.65" stroke="rgba(45, 114, 143, 1)" stroke-width="1.5"></path><path d="M1142.46 377.49L1142.46 377.49" stroke="rgba(45, 114, 143, 1)" stroke-width="1.5"></path><path d="M1142.46 377.49L1263.34 409.65" stroke="rgba(45, 114, 143, 1)" stroke-width="1.5"></path><path d="M1142.46 377.49L1091.16 528.04" stroke="rgba(45, 114, 143, 1)" stroke-width="1.5"></path><path d="M1142.46 377.49L1269.32 496.11" stroke="rgba(45, 114, 143, 1)" stroke-width="1.5"></path><path d="M1142.46 377.49L1239.16 219.22" stroke="rgba(45, 114, 143, 1)" stroke-width="1.5"></path><path d="M1091.16 528.04L1091.16 528.04" stroke="rgba(45, 114, 143, 1)" stroke-width="1.5"></path><path d="M1091.16 528.04L1141.42 638.78" stroke="rgba(45, 114, 143, 1)" stroke-width="1.5"></path><path d="M1141.42 638.78L1141.42 638.78" stroke="rgba(45, 114, 143, 1)" stroke-width="1.5"></path><path d="M1141.42 638.78L1295.41 674.66" stroke="rgba(45, 114, 143, 1)" stroke-width="1.5"></path><path d="M1141.42 638.78L985.11 546.86" stroke="rgba(45, 114, 143, 1)" stroke-width="1.5"></path><path d="M1283.44 -78.5L1283.44 -78.5" stroke="rgba(45, 114, 143, 1)" stroke-width="1.5"></path><path d="M1283.44 -78.5L1445.29 -110.07" stroke="rgba(45, 114, 143, 1)" stroke-width="1.5"></path><path d="M1283.44 -78.5L1306.92 91.93" stroke="rgba(45, 114, 143, 1)" stroke-width="1.5"></path><path d="M1283.44 -78.5L1160.25 101.28" stroke="rgba(45, 114, 143, 1)" stroke-width="1.5"></path><path d="M1283.44 -78.5L1453.73 103.96" stroke="rgba(45, 114, 143, 1)" stroke-width="1.5"></path><path d="M1283.44 -78.5L1541.64 -76.7" stroke="rgba(45, 114, 143, 1)" stroke-width="1.5"></path><path d="M1306.92 91.93L1306.92 91.93" stroke="rgba(45, 114, 143, 1)" stroke-width="1.5"></path><path d="M1306.92 91.93L1239.16 219.22" stroke="rgba(45, 114, 143, 1)" stroke-width="1.5"></path><path d="M1306.92 91.93L1160.25 101.28" stroke="rgba(45, 114, 143, 1)" stroke-width="1.5"></path><path d="M1239.16 219.22L1239.16 219.22" stroke="rgba(45, 114, 143, 1)" stroke-width="1.5"></path><path d="M1239.16 219.22L1160.25 101.28" stroke="rgba(45, 114, 143, 1)" stroke-width="1.5"></path><path d="M1239.16 219.22L1408.69 222.8" stroke="rgba(45, 114, 143, 1)" stroke-width="1.5"></path><path d="M1239.16 219.22L1263.34 409.65" stroke="rgba(45, 114, 143, 1)" stroke-width="1.5"></path><path d="M1263.34 409.65L1263.34 409.65" stroke="rgba(45, 114, 143, 1)" stroke-width="1.5"></path><path d="M1263.34 409.65L1269.32 496.11" stroke="rgba(45, 114, 143, 1)" stroke-width="1.5"></path><path d="M1263.34 409.65L1422.27 490.54" stroke="rgba(45, 114, 143, 1)" stroke-width="1.5"></path><path d="M1269.32 496.11L1269.32 496.11" stroke="rgba(45, 114, 143, 1)" stroke-width="1.5"></path><path d="M1269.32 496.11L1422.27 490.54" stroke="rgba(45, 114, 143, 1)" stroke-width="1.5"></path><path d="M1295.41 674.66L1295.41 674.66" stroke="rgba(45, 114, 143, 1)" stroke-width="1.5"></path><path d="M1295.41 674.66L1390.98 659.56" stroke="rgba(45, 114, 143, 1)" stroke-width="1.5"></path><path d="M1445.29 -110.07L1445.29 -110.07" stroke="rgba(45, 114, 143, 1)" stroke-width="1.5"></path><path d="M1445.29 -110.07L1541.64 -76.7" stroke="rgba(45, 114, 143, 1)" stroke-width="1.5"></path><path d="M1453.73 103.96L1453.73 103.96" stroke="rgba(45, 114, 143, 1)" stroke-width="1.5"></path><path d="M1453.73 103.96L1555.62 50.12" stroke="rgba(45, 114, 143, 1)" stroke-width="1.5"></path><path d="M1453.73 103.96L1408.69 222.8" stroke="rgba(45, 114, 143, 1)" stroke-width="1.5"></path><path d="M1408.69 222.8L1408.69 222.8" stroke="rgba(45, 114, 143, 1)" stroke-width="1.5"></path><path d="M1408.69 222.8L1451.68 368.3" stroke="rgba(45, 114, 143, 1)" stroke-width="1.5"></path><path d="M1451.68 368.3L1451.68 368.3" stroke="rgba(45, 114, 143, 1)" stroke-width="1.5"></path><path d="M1451.68 368.3L1567.36 380.22" stroke="rgba(45, 114, 143, 1)" stroke-width="1.5"></path><path d="M1451.68 368.3L1422.27 490.54" stroke="rgba(45, 114, 143, 1)" stroke-width="1.5"></path><path d="M1422.27 490.54L1422.27 490.54" stroke="rgba(45, 114, 143, 1)" stroke-width="1.5"></path><path d="M1422.27 490.54L1584.47 505.67" stroke="rgba(45, 114, 143, 1)" stroke-width="1.5"></path><path d="M1422.27 490.54L1390.98 659.56" stroke="rgba(45, 114, 143, 1)" stroke-width="1.5"></path><path d="M1390.98 659.56L1390.98 659.56" stroke="rgba(45, 114, 143, 1)" stroke-width="1.5"></path><path d="M1390.98 659.56L1269.32 496.11" stroke="rgba(45, 114, 143, 1)" stroke-width="1.5"></path><path d="M1390.98 659.56L1606.96 645.83" stroke="rgba(45, 114, 143, 1)" stroke-width="1.5"></path><path d="M1390.98 659.56L1584.47 505.67" stroke="rgba(45, 114, 143, 1)" stroke-width="1.5"></path><path d="M1390.98 659.56L1141.42 638.78" stroke="rgba(45, 114, 143, 1)" stroke-width="1.5"></path><path d="M1541.64 -76.7L1541.64 -76.7" stroke="rgba(45, 114, 143, 1)" stroke-width="1.5"></path><path d="M1541.64 -76.7L1555.62 50.12" stroke="rgba(45, 114, 143, 1)" stroke-width="1.5"></path><path d="M1541.64 -76.7L1453.73 103.96" stroke="rgba(45, 114, 143, 1)" stroke-width="1.5"></path><path d="M1541.64 -76.7L1306.92 91.93" stroke="rgba(45, 114, 143, 1)" stroke-width="1.5"></path><path d="M1555.62 50.12L1555.62 50.12" stroke="rgba(45, 114, 143, 1)" stroke-width="1.5"></path><path d="M1555.62 50.12L1610.42 208.59" stroke="rgba(45, 114, 143, 1)" stroke-width="1.5"></path><path d="M1555.62 50.12L1445.29 -110.07" stroke="rgba(45, 114, 143, 1)" stroke-width="1.5"></path><path d="M1555.62 50.12L1408.69 222.8" stroke="rgba(45, 114, 143, 1)" stroke-width="1.5"></path><path d="M1610.42 208.59L1610.42 208.59" stroke="rgba(45, 114, 143, 1)" stroke-width="1.5"></path><path d="M1610.42 208.59L1567.36 380.22" stroke="rgba(45, 114, 143, 1)" stroke-width="1.5"></path><path d="M1610.42 208.59L1453.73 103.96" stroke="rgba(45, 114, 143, 1)" stroke-width="1.5"></path><path d="M1610.42 208.59L1408.69 222.8" stroke="rgba(45, 114, 143, 1)" stroke-width="1.5"></path><path d="M1567.36 380.22L1567.36 380.22" stroke="rgba(45, 114, 143, 1)" stroke-width="1.5"></path><path d="M1567.36 380.22L1584.47 505.67" stroke="rgba(45, 114, 143, 1)" stroke-width="1.5"></path><path d="M1584.47 505.67L1584.47 505.67" stroke="rgba(45, 114, 143, 1)" stroke-width="1.5"></path><path d="M1584.47 505.67L1606.96 645.83" stroke="rgba(45, 114, 143, 1)" stroke-width="1.5"></path><path d="M1584.47 505.67L1451.68 368.3" stroke="rgba(45, 114, 143, 1)" stroke-width="1.5"></path><path d="M1584.47 505.67L1610.42 208.59" stroke="rgba(45, 114, 143, 1)" stroke-width="1.5"></path><path d="M1606.96 645.83L1606.96 645.83" stroke="rgba(45, 114, 143, 1)" stroke-width="1.5"></path><circle r="5" cx="-58.35" cy="410.27" fill="rgba(45, 114, 143, 1)"></circle><circle r="5" cx="-43.56" cy="493.35" fill="rgba(45, 114, 143, 1)"></circle><circle r="5" cx="-107.96" cy="662.76" fill="rgba(45, 114, 143, 1)"></circle><circle r="5" cx="84.74" cy="503.22" fill="rgba(45, 114, 143, 1)"></circle><circle r="5" cx="84.92" cy="710.96" fill="rgba(45, 114, 143, 1)"></circle><circle r="5" cx="232.22" cy="360.82" fill="rgba(45, 114, 143, 1)"></circle><circle r="5" cx="203.54" cy="543.32" fill="rgba(45, 114, 143, 1)"></circle><circle r="5" cx="223.25" cy="708.28" fill="rgba(45, 114, 143, 1)"></circle><circle r="5" cx="339.43" cy="378.01" fill="rgba(45, 114, 143, 1)"></circle><circle r="5" cx="401.54" cy="494.45" fill="rgba(45, 114, 143, 1)"></circle><circle r="5" cx="354.68" cy="674.54" fill="rgba(45, 114, 143, 1)"></circle><circle r="5" cx="490.29" cy="377.77" fill="rgba(45, 114, 143, 1)"></circle><circle r="5" cx="533.01" cy="545.77" fill="rgba(45, 114, 143, 1)"></circle><circle r="5" cx="558.7" cy="683.34" fill="rgba(45, 114, 143, 1)"></circle><circle r="5" cx="661.02" cy="358.33" fill="rgba(45, 114, 143, 1)"></circle><circle r="5" cx="709.84" cy="493.31" fill="rgba(45, 114, 143, 1)"></circle><circle r="5" cx="686.31" cy="637.87" fill="rgba(45, 114, 143, 1)"></circle><circle r="5" cx="797.77" cy="215.53" fill="rgba(45, 114, 143, 1)"></circle><circle r="5" cx="843.91" cy="354.78" fill="rgba(45, 114, 143, 1)"></circle><circle r="5" cx="849.09" cy="542.27" fill="rgba(45, 114, 143, 1)"></circle><circle r="5" cx="816.13" cy="706.47" fill="rgba(45, 114, 143, 1)"></circle><circle r="5" cx="971" cy="-52.06" fill="rgba(45, 114, 143, 1)"></circle><circle r="5" cx="953.48" cy="49.04" fill="rgba(45, 114, 143, 1)"></circle><circle r="5" cx="1006.67" cy="245.02" fill="rgba(45, 114, 143, 1)"></circle><circle r="5" cx="985.11" cy="546.86" fill="rgba(45, 114, 143, 1)"></circle><circle r="5" cx="971.29" cy="706.73" fill="rgba(45, 114, 143, 1)"></circle><circle r="5" cx="1137.61" cy="-111.09" fill="rgba(45, 114, 143, 1)"></circle><circle r="5" cx="1160.25" cy="101.28" fill="rgba(45, 114, 143, 1)"></circle><circle r="5" cx="1127.51" cy="230.13" fill="rgba(45, 114, 143, 1)"></circle><circle r="5" cx="1142.46" cy="377.49" fill="rgba(45, 114, 143, 1)"></circle><circle r="5" cx="1091.16" cy="528.04" fill="rgba(45, 114, 143, 1)"></circle><circle r="5" cx="1141.42" cy="638.78" fill="rgba(45, 114, 143, 1)"></circle><circle r="5" cx="1283.44" cy="-78.5" fill="rgba(45, 114, 143, 1)"></circle><circle r="5" cx="1306.92" cy="91.93" fill="rgba(45, 114, 143, 1)"></circle><circle r="5" cx="1239.16" cy="219.22" fill="rgba(45, 114, 143, 1)"></circle><circle r="5" cx="1263.34" cy="409.65" fill="rgba(45, 114, 143, 1)"></circle><circle r="5" cx="1269.32" cy="496.11" fill="rgba(45, 114, 143, 1)"></circle><circle r="5" cx="1295.41" cy="674.66" fill="rgba(45, 114, 143, 1)"></circle><circle r="5" cx="1445.29" cy="-110.07" fill="rgba(45, 114, 143, 1)"></circle><circle r="5" cx="1453.73" cy="103.96" fill="rgba(45, 114, 143, 1)"></circle><circle r="5" cx="1408.69" cy="222.8" fill="rgba(45, 114, 143, 1)"></circle><circle r="5" cx="1451.68" cy="368.3" fill="rgba(45, 114, 143, 1)"></circle><circle r="5" cx="1422.27" cy="490.54" fill="rgba(45, 114, 143, 1)"></circle><circle r="5" cx="1390.98" cy="659.56" fill="rgba(45, 114, 143, 1)"></circle><circle r="5" cx="1541.64" cy="-76.7" fill="rgba(45, 114, 143, 1)"></circle><circle r="5" cx="1555.62" cy="50.12" fill="rgba(45, 114, 143, 1)"></circle><circle r="5" cx="1610.42" cy="208.59" fill="rgba(45, 114, 143, 1)"></circle><circle r="5" cx="1567.36" cy="380.22" fill="rgba(45, 114, 143, 1)"></circle><circle r="5" cx="1584.47" cy="505.67" fill="rgba(45, 114, 143, 1)"></circle><circle r="5" cx="1606.96" cy="645.83" fill="rgba(45, 114, 143, 1)"></circle><path d="M193.42 505.24L193.42 505.24" stroke="hsl(191.60000000000002, 32.1%, 76.7%)" stroke-width="1.5"></path><path d="M193.42 505.24L244.3 654.78" stroke="hsl(191.60000000000002, 32.1%, 76.7%)" stroke-width="1.5"></path><path d="M193.42 505.24L41.52 555.83" stroke="hsl(191.60000000000002, 32.1%, 76.7%)" stroke-width="1.5"></path><path d="M244.3 654.78L244.3 654.78" stroke="hsl(191.60000000000002, 32.1%, 76.7%)" stroke-width="1.5"></path><path d="M244.3 654.78L387.68 674.93" stroke="hsl(191.60000000000002, 32.1%, 76.7%)" stroke-width="1.5"></path><path d="M244.3 654.78L68.95 641.75" stroke="hsl(191.60000000000002, 32.1%, 76.7%)" stroke-width="1.5"></path><path d="M244.3 654.78L374.61 500.32" stroke="hsl(191.60000000000002, 32.1%, 76.7%)" stroke-width="1.5"></path><path d="M244.3 654.78L41.52 555.83" stroke="hsl(191.60000000000002, 32.1%, 76.7%)" stroke-width="1.5"></path><path d="M374.61 500.32L374.61 500.32" stroke="hsl(191.60000000000002, 32.1%, 76.7%)" stroke-width="1.5"></path><path d="M374.61 500.32L387.68 674.93" stroke="hsl(191.60000000000002, 32.1%, 76.7%)" stroke-width="1.5"></path><path d="M374.61 500.32L193.42 505.24" stroke="hsl(191.60000000000002, 32.1%, 76.7%)" stroke-width="1.5"></path><path d="M374.61 500.32L532.9 653.48" stroke="hsl(191.60000000000002, 32.1%, 76.7%)" stroke-width="1.5"></path><path d="M374.61 500.32L704.2 552.06" stroke="hsl(191.60000000000002, 32.1%, 76.7%)" stroke-width="1.5"></path><path d="M847.09 693.29L847.09 693.29" stroke="hsl(191.60000000000002, 32.1%, 76.7%)" stroke-width="1.5"></path><path d="M847.09 693.29L1003.5 655.63" stroke="hsl(191.60000000000002, 32.1%, 76.7%)" stroke-width="1.5"></path><path d="M847.09 693.29L855.63 524.66" stroke="hsl(191.60000000000002, 32.1%, 76.7%)" stroke-width="1.5"></path><path d="M847.09 693.29L680.39 646.17" stroke="hsl(191.60000000000002, 32.1%, 76.7%)" stroke-width="1.5"></path><path d="M847.09 693.29L704.2 552.06" stroke="hsl(191.60000000000002, 32.1%, 76.7%)" stroke-width="1.5"></path><path d="M847.09 693.29L993.88 490.06" stroke="hsl(191.60000000000002, 32.1%, 76.7%)" stroke-width="1.5"></path><path d="M847.09 693.29L1138.95 702.05" stroke="hsl(191.60000000000002, 32.1%, 76.7%)" stroke-width="1.5"></path><path d="M1291.51 -63.78L1291.51 -63.78" stroke="hsl(191.60000000000002, 32.1%, 76.7%)" stroke-width="1.5"></path><path d="M1291.51 -63.78L1403.82 -69.88" stroke="hsl(191.60000000000002, 32.1%, 76.7%)" stroke-width="1.5"></path><path d="M1291.51 -63.78L1287.33 49.51" stroke="hsl(191.60000000000002, 32.1%, 76.7%)" stroke-width="1.5"></path><path d="M1291.51 -63.78L1162.47 64.24" stroke="hsl(191.60000000000002, 32.1%, 76.7%)" stroke-width="1.5"></path><path d="M1263.42 538.63L1263.42 538.63" stroke="hsl(191.60000000000002, 32.1%, 76.7%)" stroke-width="1.5"></path><path d="M1263.42 538.63L1275.31 653.62" stroke="hsl(191.60000000000002, 32.1%, 76.7%)" stroke-width="1.5"></path><path d="M1263.42 538.63L1397.28 532.51" stroke="hsl(191.60000000000002, 32.1%, 76.7%)" stroke-width="1.5"></path><path d="M1263.42 538.63L1088.64 514.91" stroke="hsl(191.60000000000002, 32.1%, 76.7%)" stroke-width="1.5"></path><path d="M1263.42 538.63L1293.34 359.17" stroke="hsl(191.60000000000002, 32.1%, 76.7%)" stroke-width="1.5"></path><path d="M1263.42 538.63L1138.95 702.05" stroke="hsl(191.60000000000002, 32.1%, 76.7%)" stroke-width="1.5"></path><path d="M1263.42 538.63L1426.34 391.35" stroke="hsl(191.60000000000002, 32.1%, 76.7%)" stroke-width="1.5"></path><path d="M1437.67 705.33L1437.67 705.33" stroke="hsl(191.60000000000002, 32.1%, 76.7%)" stroke-width="1.5"></path><path d="M1437.67 705.33L1545.39 676.77" stroke="hsl(191.60000000000002, 32.1%, 76.7%)" stroke-width="1.5"></path><path d="M1437.67 705.33L1275.31 653.62" stroke="hsl(191.60000000000002, 32.1%, 76.7%)" stroke-width="1.5"></path><path d="M1437.67 705.33L1397.28 532.51" stroke="hsl(191.60000000000002, 32.1%, 76.7%)" stroke-width="1.5"></path><path d="M1437.67 705.33L1560.76 538.12" stroke="hsl(191.60000000000002, 32.1%, 76.7%)" stroke-width="1.5"></path><path d="M1437.67 705.33L1263.42 538.63" stroke="hsl(191.60000000000002, 32.1%, 76.7%)" stroke-width="1.5"></path><path d="M1437.67 705.33L1138.95 702.05" stroke="hsl(191.60000000000002, 32.1%, 76.7%)" stroke-width="1.5"></path><path d="M1598.69 341.39L1598.69 341.39" stroke="hsl(191.60000000000002, 32.1%, 76.7%)" stroke-width="1.5"></path><path d="M1598.69 341.39L1609.61 248.36" stroke="hsl(191.60000000000002, 32.1%, 76.7%)" stroke-width="1.5"></path><path d="M1598.69 341.39L1426.34 391.35" stroke="hsl(191.60000000000002, 32.1%, 76.7%)" stroke-width="1.5"></path><path d="M1598.69 341.39L1560.76 538.12" stroke="hsl(191.60000000000002, 32.1%, 76.7%)" stroke-width="1.5"></path><path d="M1598.69 341.39L1397.28 532.51" stroke="hsl(191.60000000000002, 32.1%, 76.7%)" stroke-width="1.5"></path><path d="M1545.39 676.77L1545.39 676.77" stroke="hsl(191.60000000000002, 32.1%, 76.7%)" stroke-width="1.5"></path><path d="M1545.39 676.77L1560.76 538.12" stroke="hsl(191.60000000000002, 32.1%, 76.7%)" stroke-width="1.5"></path><path d="M1545.39 676.77L1397.28 532.51" stroke="hsl(191.60000000000002, 32.1%, 76.7%)" stroke-width="1.5"></path><path d="M1545.39 676.77L1275.31 653.62" stroke="hsl(191.60000000000002, 32.1%, 76.7%)" stroke-width="1.5"></path><path d="M-37.66 490.79L-37.66 490.79" stroke="hsl(191.60000000000002, 32.1%, 76.7%)" stroke-width="1.5"></path><path d="M-37.66 490.79L41.52 555.83" stroke="hsl(191.60000000000002, 32.1%, 76.7%)" stroke-width="1.5"></path><path d="M-37.66 490.79L-64.66 664.43" stroke="hsl(191.60000000000002, 32.1%, 76.7%)" stroke-width="1.5"></path><path d="M-37.66 490.79L68.95 641.75" stroke="hsl(191.60000000000002, 32.1%, 76.7%)" stroke-width="1.5"></path><path d="M-64.66 664.43L-64.66 664.43" stroke="hsl(191.60000000000002, 32.1%, 76.7%)" stroke-width="1.5"></path><path d="M-64.66 664.43L68.95 641.75" stroke="hsl(191.60000000000002, 32.1%, 76.7%)" stroke-width="1.5"></path><path d="M-64.66 664.43L41.52 555.83" stroke="hsl(191.60000000000002, 32.1%, 76.7%)" stroke-width="1.5"></path><path d="M41.52 555.83L41.52 555.83" stroke="hsl(191.60000000000002, 32.1%, 76.7%)" stroke-width="1.5"></path><path d="M41.52 555.83L68.95 641.75" stroke="hsl(191.60000000000002, 32.1%, 76.7%)" stroke-width="1.5"></path><path d="M68.95 641.75L68.95 641.75" stroke="hsl(191.60000000000002, 32.1%, 76.7%)" stroke-width="1.5"></path><path d="M68.95 641.75L193.42 505.24" stroke="hsl(191.60000000000002, 32.1%, 76.7%)" stroke-width="1.5"></path><path d="M387.68 674.93L387.68 674.93" stroke="hsl(191.60000000000002, 32.1%, 76.7%)" stroke-width="1.5"></path><path d="M387.68 674.93L532.9 653.48" stroke="hsl(191.60000000000002, 32.1%, 76.7%)" stroke-width="1.5"></path><path d="M532.9 653.48L532.9 653.48" stroke="hsl(191.60000000000002, 32.1%, 76.7%)" stroke-width="1.5"></path><path d="M532.9 653.48L680.39 646.17" stroke="hsl(191.60000000000002, 32.1%, 76.7%)" stroke-width="1.5"></path><path d="M532.9 653.48L704.2 552.06" stroke="hsl(191.60000000000002, 32.1%, 76.7%)" stroke-width="1.5"></path><path d="M532.9 653.48L244.3 654.78" stroke="hsl(191.60000000000002, 32.1%, 76.7%)" stroke-width="1.5"></path><path d="M704.2 552.06L704.2 552.06" stroke="hsl(191.60000000000002, 32.1%, 76.7%)" stroke-width="1.5"></path><path d="M704.2 552.06L680.39 646.17" stroke="hsl(191.60000000000002, 32.1%, 76.7%)" stroke-width="1.5"></path><path d="M704.2 552.06L855.63 524.66" stroke="hsl(191.60000000000002, 32.1%, 76.7%)" stroke-width="1.5"></path><path d="M680.39 646.17L680.39 646.17" stroke="hsl(191.60000000000002, 32.1%, 76.7%)" stroke-width="1.5"></path><path d="M825.09 360.57L825.09 360.57" stroke="hsl(191.60000000000002, 32.1%, 76.7%)" stroke-width="1.5"></path><path d="M825.09 360.57L855.63 524.66" stroke="hsl(191.60000000000002, 32.1%, 76.7%)" stroke-width="1.5"></path><path d="M825.09 360.57L993.88 490.06" stroke="hsl(191.60000000000002, 32.1%, 76.7%)" stroke-width="1.5"></path><path d="M825.09 360.57L704.2 552.06" stroke="hsl(191.60000000000002, 32.1%, 76.7%)" stroke-width="1.5"></path><path d="M825.09 360.57L1095.23 370.03" stroke="hsl(191.60000000000002, 32.1%, 76.7%)" stroke-width="1.5"></path><path d="M825.09 360.57L1093.63 236.24" stroke="hsl(191.60000000000002, 32.1%, 76.7%)" stroke-width="1.5"></path><path d="M825.09 360.57L1088.64 514.91" stroke="hsl(191.60000000000002, 32.1%, 76.7%)" stroke-width="1.5"></path><path d="M855.63 524.66L855.63 524.66" stroke="hsl(191.60000000000002, 32.1%, 76.7%)" stroke-width="1.5"></path><path d="M855.63 524.66L993.88 490.06" stroke="hsl(191.60000000000002, 32.1%, 76.7%)" stroke-width="1.5"></path><path d="M993.88 490.06L993.88 490.06" stroke="hsl(191.60000000000002, 32.1%, 76.7%)" stroke-width="1.5"></path><path d="M993.88 490.06L1088.64 514.91" stroke="hsl(191.60000000000002, 32.1%, 76.7%)" stroke-width="1.5"></path><path d="M993.88 490.06L1095.23 370.03" stroke="hsl(191.60000000000002, 32.1%, 76.7%)" stroke-width="1.5"></path><path d="M993.88 490.06L1003.5 655.63" stroke="hsl(191.60000000000002, 32.1%, 76.7%)" stroke-width="1.5"></path><path d="M1003.5 655.63L1003.5 655.63" stroke="hsl(191.60000000000002, 32.1%, 76.7%)" stroke-width="1.5"></path><path d="M1003.5 655.63L1138.95 702.05" stroke="hsl(191.60000000000002, 32.1%, 76.7%)" stroke-width="1.5"></path><path d="M1162.47 64.24L1162.47 64.24" stroke="hsl(191.60000000000002, 32.1%, 76.7%)" stroke-width="1.5"></path><path d="M1162.47 64.24L1287.33 49.51" stroke="hsl(191.60000000000002, 32.1%, 76.7%)" stroke-width="1.5"></path><path d="M1093.63 236.24L1093.63 236.24" stroke="hsl(191.60000000000002, 32.1%, 76.7%)" stroke-width="1.5"></path><path d="M1093.63 236.24L1095.23 370.03" stroke="hsl(191.60000000000002, 32.1%, 76.7%)" stroke-width="1.5"></path><path d="M1093.63 236.24L1251.37 242.04" stroke="hsl(191.60000000000002, 32.1%, 76.7%)" stroke-width="1.5"></path><path d="M1093.63 236.24L1162.47 64.24" stroke="hsl(191.60000000000002, 32.1%, 76.7%)" stroke-width="1.5"></path><path d="M1093.63 236.24L1293.34 359.17" stroke="hsl(191.60000000000002, 32.1%, 76.7%)" stroke-width="1.5"></path><path d="M1095.23 370.03L1095.23 370.03" stroke="hsl(191.60000000000002, 32.1%, 76.7%)" stroke-width="1.5"></path><path d="M1095.23 370.03L1088.64 514.91" stroke="hsl(191.60000000000002, 32.1%, 76.7%)" stroke-width="1.5"></path><path d="M1095.23 370.03L1293.34 359.17" stroke="hsl(191.60000000000002, 32.1%, 76.7%)" stroke-width="1.5"></path><path d="M1095.23 370.03L1251.37 242.04" stroke="hsl(191.60000000000002, 32.1%, 76.7%)" stroke-width="1.5"></path><path d="M1088.64 514.91L1088.64 514.91" stroke="hsl(191.60000000000002, 32.1%, 76.7%)" stroke-width="1.5"></path><path d="M1088.64 514.91L1003.5 655.63" stroke="hsl(191.60000000000002, 32.1%, 76.7%)" stroke-width="1.5"></path><path d="M1088.64 514.91L1138.95 702.05" stroke="hsl(191.60000000000002, 32.1%, 76.7%)" stroke-width="1.5"></path><path d="M1138.95 702.05L1138.95 702.05" stroke="hsl(191.60000000000002, 32.1%, 76.7%)" stroke-width="1.5"></path><path d="M1138.95 702.05L1275.31 653.62" stroke="hsl(191.60000000000002, 32.1%, 76.7%)" stroke-width="1.5"></path><path d="M1287.33 49.51L1287.33 49.51" stroke="hsl(191.60000000000002, 32.1%, 76.7%)" stroke-width="1.5"></path><path d="M1251.37 242.04L1251.37 242.04" stroke="hsl(191.60000000000002, 32.1%, 76.7%)" stroke-width="1.5"></path><path d="M1251.37 242.04L1293.34 359.17" stroke="hsl(191.60000000000002, 32.1%, 76.7%)" stroke-width="1.5"></path><path d="M1251.37 242.04L1287.33 49.51" stroke="hsl(191.60000000000002, 32.1%, 76.7%)" stroke-width="1.5"></path><path d="M1293.34 359.17L1293.34 359.17" stroke="hsl(191.60000000000002, 32.1%, 76.7%)" stroke-width="1.5"></path><path d="M1293.34 359.17L1426.34 391.35" stroke="hsl(191.60000000000002, 32.1%, 76.7%)" stroke-width="1.5"></path><path d="M1293.34 359.17L1397.28 532.51" stroke="hsl(191.60000000000002, 32.1%, 76.7%)" stroke-width="1.5"></path><path d="M1275.31 653.62L1275.31 653.62" stroke="hsl(191.60000000000002, 32.1%, 76.7%)" stroke-width="1.5"></path><path d="M1275.31 653.62L1397.28 532.51" stroke="hsl(191.60000000000002, 32.1%, 76.7%)" stroke-width="1.5"></path><path d="M1275.31 653.62L1088.64 514.91" stroke="hsl(191.60000000000002, 32.1%, 76.7%)" stroke-width="1.5"></path><path d="M1403.82 -69.88L1403.82 -69.88" stroke="hsl(191.60000000000002, 32.1%, 76.7%)" stroke-width="1.5"></path><path d="M1403.82 -69.88L1421.53 77.87" stroke="hsl(191.60000000000002, 32.1%, 76.7%)" stroke-width="1.5"></path><path d="M1421.53 77.87L1421.53 77.87" stroke="hsl(191.60000000000002, 32.1%, 76.7%)" stroke-width="1.5"></path><path d="M1421.53 77.87L1287.33 49.51" stroke="hsl(191.60000000000002, 32.1%, 76.7%)" stroke-width="1.5"></path><path d="M1421.53 77.87L1291.51 -63.78" stroke="hsl(191.60000000000002, 32.1%, 76.7%)" stroke-width="1.5"></path><path d="M1421.53 77.87L1596.82 -73.47" stroke="hsl(191.60000000000002, 32.1%, 76.7%)" stroke-width="1.5"></path><path d="M1426.34 391.35L1426.34 391.35" stroke="hsl(191.60000000000002, 32.1%, 76.7%)" stroke-width="1.5"></path><path d="M1397.28 532.51L1397.28 532.51" stroke="hsl(191.60000000000002, 32.1%, 76.7%)" stroke-width="1.5"></path><path d="M1397.28 532.51L1426.34 391.35" stroke="hsl(191.60000000000002, 32.1%, 76.7%)" stroke-width="1.5"></path><path d="M1397.28 532.51L1560.76 538.12" stroke="hsl(191.60000000000002, 32.1%, 76.7%)" stroke-width="1.5"></path><path d="M1596.82 -73.47L1596.82 -73.47" stroke="hsl(191.60000000000002, 32.1%, 76.7%)" stroke-width="1.5"></path><path d="M1596.82 -73.47L1403.82 -69.88" stroke="hsl(191.60000000000002, 32.1%, 76.7%)" stroke-width="1.5"></path><path d="M1596.82 -73.47L1291.51 -63.78" stroke="hsl(191.60000000000002, 32.1%, 76.7%)" stroke-width="1.5"></path><path d="M1596.82 -73.47L1609.61 248.36" stroke="hsl(191.60000000000002, 32.1%, 76.7%)" stroke-width="1.5"></path><path d="M1596.82 -73.47L1287.33 49.51" stroke="hsl(191.60000000000002, 32.1%, 76.7%)" stroke-width="1.5"></path><path d="M1609.61 248.36L1609.61 248.36" stroke="hsl(191.60000000000002, 32.1%, 76.7%)" stroke-width="1.5"></path><path d="M1609.61 248.36L1426.34 391.35" stroke="hsl(191.60000000000002, 32.1%, 76.7%)" stroke-width="1.5"></path><path d="M1609.61 248.36L1421.53 77.87" stroke="hsl(191.60000000000002, 32.1%, 76.7%)" stroke-width="1.5"></path><path d="M1609.61 248.36L1560.76 538.12" stroke="hsl(191.60000000000002, 32.1%, 76.7%)" stroke-width="1.5"></path><path d="M1560.76 538.12L1560.76 538.12" stroke="hsl(191.60000000000002, 32.1%, 76.7%)" stroke-width="1.5"></path><path d="M1560.76 538.12L1426.34 391.35" stroke="hsl(191.60000000000002, 32.1%, 76.7%)" stroke-width="1.5"></path><circle r="25" cx="193.42" cy="505.24" fill="url(#SvgjsRadialGradient2030)"></circle><circle r="25" cx="244.3" cy="654.78" fill="url(#SvgjsRadialGradient2030)"></circle><circle r="25" cx="374.61" cy="500.32" fill="url(#SvgjsRadialGradient2030)"></circle><circle r="25" cx="847.09" cy="693.29" fill="url(#SvgjsRadialGradient2030)"></circle><circle r="25" cx="1291.51" cy="-63.78" fill="url(#SvgjsRadialGradient2030)"></circle><circle r="25" cx="1263.42" cy="538.63" fill="url(#SvgjsRadialGradient2030)"></circle><circle r="25" cx="1437.67" cy="705.33" fill="url(#SvgjsRadialGradient2030)"></circle><circle r="25" cx="1598.69" cy="341.39" fill="url(#SvgjsRadialGradient2030)"></circle><circle r="25" cx="1545.39" cy="676.77" fill="url(#SvgjsRadialGradient2030)"></circle><circle r="5" cx="-37.66" cy="490.79" fill="#bad5dc"></circle><circle r="5" cx="-64.66" cy="664.43" fill="#bad5dc"></circle><circle r="5" cx="41.52" cy="555.83" fill="#bad5dc"></circle><circle r="5" cx="68.95" cy="641.75" fill="#bad5dc"></circle><circle r="5" cx="387.68" cy="674.93" fill="#bad5dc"></circle><circle r="5" cx="532.9" cy="653.48" fill="#bad5dc"></circle><circle r="5" cx="704.2" cy="552.06" fill="#bad5dc"></circle><circle r="5" cx="680.39" cy="646.17" fill="#bad5dc"></circle><circle r="5" cx="825.09" cy="360.57" fill="#bad5dc"></circle><circle r="5" cx="855.63" cy="524.66" fill="#bad5dc"></circle><circle r="5" cx="993.88" cy="490.06" fill="#bad5dc"></circle><circle r="5" cx="1003.5" cy="655.63" fill="#bad5dc"></circle><circle r="5" cx="1162.47" cy="64.24" fill="#bad5dc"></circle><circle r="5" cx="1093.63" cy="236.24" fill="#bad5dc"></circle><circle r="5" cx="1095.23" cy="370.03" fill="#bad5dc"></circle><circle r="5" cx="1088.64" cy="514.91" fill="#bad5dc"></circle><circle r="5" cx="1138.95" cy="702.05" fill="#bad5dc"></circle><circle r="5" cx="1287.33" cy="49.51" fill="#bad5dc"></circle><circle r="5" cx="1251.37" cy="242.04" fill="#bad5dc"></circle><circle r="5" cx="1293.34" cy="359.17" fill="#bad5dc"></circle><circle r="5" cx="1275.31" cy="653.62" fill="#bad5dc"></circle><circle r="5" cx="1403.82" cy="-69.88" fill="#bad5dc"></circle><circle r="5" cx="1421.53" cy="77.87" fill="#bad5dc"></circle><circle r="5" cx="1426.34" cy="391.35" fill="#bad5dc"></circle><circle r="5" cx="1397.28" cy="532.51" fill="#bad5dc"></circle><circle r="5" cx="1596.82" cy="-73.47" fill="#bad5dc"></circle><circle r="5" cx="1609.61" cy="248.36" fill="#bad5dc"></circle><circle r="5" cx="1560.76" cy="538.12" fill="#bad5dc"></circle></g><defs><mask id="SvgjsMask2028"><rect width="1440" height="560" fill="#ffffff"></rect></mask><linearGradient x1="15.28%" y1="139.29%" x2="84.72%" y2="-39.29%" gradientUnits="userSpaceOnUse" id="SvgjsLinearGradient2029"><stop stop-color="#0e2a47" offset="0"></stop><stop stop-color="rgba(19, 139, 158, 1)" offset="1"></stop></linearGradient><radialGradient id="SvgjsRadialGradient2030"><stop stop-color="#ffffff" offset="0.1"></stop><stop stop-color="rgba(117, 171, 184, 1)" offset="0.2"></stop><stop stop-color="rgba(117, 171, 184, 0)" offset="1"></stop></radialGradient></defs></svg>