<svg xmlns="http://www.w3.org/2000/svg" version="1.1" xmlns:xlink="http://www.w3.org/1999/xlink" xmlns:svgjs="http://svgjs.com/svgjs" width="1440" height="560" preserveAspectRatio="none" viewBox="0 0 1440 560"><g mask="url(&quot;#SvgjsMask1043&quot;)" fill="none"><rect width="1440" height="560" x="0" y="0" fill="rgba(101, 174, 191, 0.47)"></rect><path d="M542.514,247.829C589.11,247.865,636.414,233.069,661.11,193.556C687.198,151.815,686.681,98.684,662.54,55.787C637.928,12.054,592.581,-20.582,542.514,-17.179C496.529,-14.053,470.347,30.201,447.773,70.386C425.863,109.389,403.168,153.908,424.238,193.371C446.149,234.408,495.994,247.793,542.514,247.829" fill="rgba(28, 83, 142, 0.4)" class="triangle-float3"></path><path d="M1126.712045214536 570.1802969994355L1126.712045214536 472.5487455619438 1029.0804937770442 472.54874556194386 1029.0804937770442 570.1802969994355z" fill="rgba(28, 83, 142, 0.4)" class="triangle-float2"></path><path d="M184.54 9.32 a160.11 160.11 0 1 0 320.22 0 a160.11 160.11 0 1 0 -320.22 0z" fill="rgba(28, 83, 142, 0.4)" class="triangle-float3"></path><path d="M1172.6870814808215 176.27296137811265L1222.896299237533 21.744878473834518 1068.3682163332548-28.46433928287695 1018.1589985765434 126.06374362140119z" fill="rgba(28, 83, 142, 0.4)" class="triangle-float1"></path><path d="M73.609,582.831C120.996,583.438,174.979,581.167,199.326,540.508C224.082,499.167,203.17,448.762,178.776,407.207C154.783,366.336,120.943,328.711,73.609,326.355C22.591,323.816,-26.105,351.373,-51.399,395.752C-76.464,439.73,-74.774,495.27,-46.651,537.358C-21.131,575.55,27.679,582.243,73.609,582.831" fill="rgba(28, 83, 142, 0.4)" class="triangle-float2"></path><path d="M1355.988,428.278C1373.392,427.897,1389.781,419.203,1398.222,403.978C1406.428,389.177,1405.05,370.772,1395.685,356.675C1387.203,343.907,1371.315,340.586,1355.988,340.402C1340.227,340.213,1323.61,342.765,1314.609,355.704C1304.333,370.476,1301.516,390.264,1310.429,405.897C1319.411,421.651,1337.857,428.674,1355.988,428.278" fill="rgba(28, 83, 142, 0.4)" class="triangle-float3"></path><path d="M778.314,342.781C835.412,342.199,896.135,326.671,923.867,276.756C951.033,227.859,930.795,169.233,901.056,121.856C873.537,78.015,830,47.677,778.314,44.878C720.977,41.773,661.179,58.862,630.16,107.184C596.846,159.081,594.697,227.573,627.526,279.778C658.607,329.203,719.932,343.376,778.314,342.781" fill="rgba(28, 83, 142, 0.4)" class="triangle-float3"></path></g><defs><mask id="SvgjsMask1043"><rect width="1440" height="560" fill="#ffffff"></rect></mask><style>
            @keyframes float1 {
                0%{transform: translate(0, 0)}
                50%{transform: translate(-10px, 0)}
                100%{transform: translate(0, 0)}
            }

            .triangle-float1 {
                animation: float1 5s infinite;
            }

            @keyframes float2 {
                0%{transform: translate(0, 0)}
                50%{transform: translate(-5px, -5px)}
                100%{transform: translate(0, 0)}
            }

            .triangle-float2 {
                animation: float2 4s infinite;
            }

            @keyframes float3 {
                0%{transform: translate(0, 0)}
                50%{transform: translate(0, -10px)}
                100%{transform: translate(0, 0)}
            }

            .triangle-float3 {
                animation: float3 6s infinite;
            }
        </style></defs></svg>